<svg width="135" height="23" viewBox="0 0 135 23" fill="none" xmlns="http://www.w3.org/2000/svg">
<path d="M28.332 19.072V5.75197H33.336C34.524 5.75197 35.562 5.91997 36.45 6.25597C37.35 6.59197 38.1 7.05997 38.7 7.65997C39.3 8.24797 39.75 8.93197 40.05 9.71197C40.35 10.492 40.5 11.32 40.5 12.196V12.592C40.5 13.396 40.35 14.188 40.05 14.968C39.75 15.736 39.3 16.432 38.7 17.056C38.1 17.668 37.35 18.16 36.45 18.532C35.562 18.892 34.524 19.072 33.336 19.072H28.332ZM33.48 8.88397H31.68V15.94H33.48C34.62 15.94 35.508 15.622 36.144 14.986C36.792 14.35 37.116 13.486 37.116 12.394C37.116 11.242 36.792 10.372 36.144 9.78397C35.508 9.18397 34.62 8.88397 33.48 8.88397Z" fill="#212121"/>
<path d="M43.4578 8.27197C42.8698 8.27197 42.4318 8.12197 42.1438 7.82197C41.8678 7.50997 41.7298 7.11397 41.7298 6.63397C41.7298 6.15397 41.8678 5.76397 42.1438 5.46397C42.4318 5.15197 42.8698 4.99597 43.4578 4.99597C44.0578 4.99597 44.4958 5.15197 44.7718 5.46397C45.0478 5.76397 45.1858 6.15397 45.1858 6.63397C45.1858 7.11397 45.0478 7.50997 44.7718 7.82197C44.4958 8.12197 44.0578 8.27197 43.4578 8.27197ZM42.1258 19V11.44H40.8658V9.06397H45.4018V19H42.1258Z" fill="#212121"/>
<path d="M47.2701 19V9.06397H49.8621V11.674C50.0541 10.69 50.4321 9.95797 50.9961 9.47797C51.5601 8.98597 52.2921 8.73997 53.1921 8.73997H53.3361C54.4641 8.73997 55.3341 9.11797 55.9461 9.87397C56.5701 10.618 56.8821 11.764 56.8821 13.312V19H53.6061V13.222C53.6061 12.766 53.4681 12.394 53.1921 12.106C52.9281 11.806 52.5621 11.656 52.0941 11.656C51.6261 11.656 51.2481 11.806 50.9601 12.106C50.6841 12.394 50.5461 12.778 50.5461 13.258V19H47.2701Z" fill="#212121"/>
<path d="M63.2046 19.36C62.3646 19.36 61.6206 19.216 60.9726 18.928C60.3246 18.64 59.7786 18.25 59.3346 17.758C58.8906 17.266 58.5486 16.714 58.3086 16.102C58.0806 15.49 57.9666 14.86 57.9666 14.212V13.852C57.9666 13.18 58.0806 12.538 58.3086 11.926C58.5486 11.302 58.8846 10.75 59.3166 10.27C59.7606 9.78997 60.3006 9.41197 60.9366 9.13597C61.5726 8.84797 62.2926 8.70397 63.0966 8.70397C64.1646 8.70397 65.0706 8.94397 65.8146 9.42397C66.5586 9.90397 67.1286 10.54 67.5246 11.332C67.9206 12.112 68.1186 12.964 68.1186 13.888V14.932H61.0626C61.1706 15.496 61.3986 15.94 61.7466 16.264C62.0946 16.576 62.5806 16.732 63.2046 16.732C64.1166 16.732 64.6986 16.444 64.9506 15.868H67.9386C67.7946 16.54 67.5066 17.14 67.0746 17.668C66.6546 18.196 66.1146 18.61 65.4546 18.91C64.8066 19.21 64.0566 19.36 63.2046 19.36ZM63.0966 11.332C62.5566 11.332 62.1066 11.488 61.7466 11.8C61.3986 12.1 61.1706 12.556 61.0626 13.168H65.0406C64.8366 11.944 64.1886 11.332 63.0966 11.332Z" fill="#212121"/>
<path d="M72.5832 19V5.85997H77.2272L79.9272 12.79H80.2872L82.9692 5.85997H87.7032V19H84.3912V9.13597L81.5292 16.354H78.4872L75.6432 9.22597V19H72.5832Z" fill="#212121"/>
<path d="M92.5503 19.252C91.4943 19.252 90.6303 18.976 89.9583 18.424C89.2983 17.86 88.9683 17.08 88.9683 16.084C88.9683 15.34 89.1663 14.74 89.5623 14.284C89.9583 13.816 90.5043 13.474 91.2003 13.258C91.8963 13.042 92.6943 12.934 93.5943 12.934H95.1603C95.1483 12.478 95.0343 12.148 94.8183 11.944C94.6143 11.728 94.2783 11.62 93.8103 11.62C93.5823 11.62 93.2463 11.626 92.8023 11.638C92.3583 11.65 91.8903 11.668 91.3983 11.692C90.9063 11.716 90.4563 11.74 90.0483 11.764V9.02797C90.3363 9.00397 90.6783 8.97997 91.0743 8.95597C91.4703 8.93197 91.8783 8.91397 92.2983 8.90197C92.7303 8.88997 93.1263 8.88397 93.4863 8.88397C95.0223 8.88397 96.2043 9.21997 97.0323 9.89197C97.8723 10.564 98.2923 11.59 98.2923 12.97V19H95.7003V17.164C95.4843 17.836 95.1123 18.352 94.5843 18.712C94.0563 19.072 93.3783 19.252 92.5503 19.252ZM93.5943 17.056C94.0143 17.056 94.3683 16.936 94.6563 16.696C94.9563 16.444 95.1243 15.988 95.1603 15.328V14.626H93.5943C93.1503 14.626 92.8083 14.74 92.5683 14.968C92.3283 15.184 92.2083 15.478 92.2083 15.85C92.2083 16.21 92.3283 16.504 92.5683 16.732C92.8083 16.948 93.1503 17.056 93.5943 17.056Z" fill="#212121"/>
<path d="M99.9412 19V9.06397H102.533V12.574C102.641 11.434 102.977 10.54 103.541 9.89197C104.117 9.24397 104.897 8.91997 105.881 8.91997H106.277V11.728H105.521C104.789 11.728 104.219 11.926 103.811 12.322C103.415 12.718 103.217 13.288 103.217 14.032V19H99.9412Z" fill="#212121"/>
<path d="M107.03 19V5.85997H110.306V13.69L113.708 9.06397H117.128L113.996 13.312L117.74 19H114.086L111.152 14.356H110.306V19H107.03Z" fill="#212121"/>
<path d="M122.613 19.36C121.773 19.36 121.029 19.216 120.381 18.928C119.733 18.64 119.187 18.25 118.743 17.758C118.299 17.266 117.957 16.714 117.717 16.102C117.489 15.49 117.375 14.86 117.375 14.212V13.852C117.375 13.18 117.489 12.538 117.717 11.926C117.957 11.302 118.293 10.75 118.725 10.27C119.169 9.78997 119.709 9.41197 120.345 9.13597C120.981 8.84797 121.701 8.70397 122.505 8.70397C123.573 8.70397 124.479 8.94397 125.223 9.42397C125.967 9.90397 126.537 10.54 126.933 11.332C127.329 12.112 127.527 12.964 127.527 13.888V14.932H120.471C120.579 15.496 120.807 15.94 121.155 16.264C121.503 16.576 121.989 16.732 122.613 16.732C123.525 16.732 124.107 16.444 124.359 15.868H127.347C127.203 16.54 126.915 17.14 126.483 17.668C126.063 18.196 125.523 18.61 124.863 18.91C124.215 19.21 123.465 19.36 122.613 19.36ZM122.505 11.332C121.965 11.332 121.515 11.488 121.155 11.8C120.807 12.1 120.579 12.556 120.471 13.168H124.449C124.245 11.944 123.597 11.332 122.505 11.332Z" fill="#212121"/>
<path d="M133.448 19.144C132.368 19.144 131.504 19.012 130.856 18.748C130.22 18.484 129.758 18.046 129.47 17.434C129.182 16.822 129.038 15.994 129.038 14.95V11.44H127.598V9.06397H129.056V6.47197H132.08V9.06397H134.798V11.44H132.062V15.04C132.062 15.952 132.518 16.408 133.43 16.408H134.798V19.144H133.448Z" fill="#212121"/>
<circle cx="11.5" cy="11.5" r="9.5" stroke="#212121" stroke-width="4"/>
</svg>
